<svg xmlns="http://www.w3.org/2000/svg" width="300" height="300" viewBox="0 0 300 300">
  <rect width="300" height="300" fill="white"/>
  <rect x="10" y="10" width="280" height="280" rx="8" fill="white" stroke="#e5e7eb" stroke-width="2"/>
  <!-- QR corner markers -->
  <rect x="25" y="25" width="70" height="70" rx="4" fill="none" stroke="#1b3a2d" stroke-width="6"/>
  <rect x="35" y="35" width="50" height="50" rx="2" fill="#1b3a2d"/>
  <rect x="45" y="45" width="30" height="30" rx="1" fill="white"/>
  <rect x="205" y="25" width="70" height="70" rx="4" fill="none" stroke="#1b3a2d" stroke-width="6"/>
  <rect x="215" y="35" width="50" height="50" rx="2" fill="#1b3a2d"/>
  <rect x="225" y="45" width="30" height="30" rx="1" fill="white"/>
  <rect x="25" y="205" width="70" height="70" rx="4" fill="none" stroke="#1b3a2d" stroke-width="6"/>
  <rect x="35" y="215" width="50" height="50" rx="2" fill="#1b3a2d"/>
  <rect x="45" y="225" width="30" height="30" rx="1" fill="white"/>
  <!-- QR data dots pattern -->
  <rect x="110" y="25" width="8" height="8" fill="#1b3a2d"/>
  <rect x="125" y="25" width="8" height="8" fill="#1b3a2d"/>
  <rect x="148" y="25" width="8" height="8" fill="#1b3a2d"/>
  <rect x="163" y="25" width="8" height="8" fill="#1b3a2d"/>
  <rect x="110" y="40" width="8" height="8" fill="#1b3a2d"/>
  <rect x="140" y="40" width="8" height="8" fill="#1b3a2d"/>
  <rect x="163" y="40" width="8" height="8" fill="#1b3a2d"/>
  <rect x="125" y="55" width="8" height="8" fill="#1b3a2d"/>
  <rect x="148" y="55" width="8" height="8" fill="#1b3a2d"/>
  <rect x="110" y="70" width="8" height="8" fill="#1b3a2d"/>
  <rect x="140" y="70" width="8" height="8" fill="#1b3a2d"/>
  <rect x="163" y="70" width="8" height="8" fill="#1b3a2d"/>
  <rect x="110" y="85" width="8" height="8" fill="#1b3a2d"/>
  <rect x="125" y="85" width="8" height="8" fill="#1b3a2d"/>
  <rect x="148" y="85" width="8" height="8" fill="#1b3a2d"/>
  <!-- Middle rows -->
  <rect x="25" y="110" width="8" height="8" fill="#1b3a2d"/>
  <rect x="55" y="110" width="8" height="8" fill="#1b3a2d"/>
  <rect x="70" y="110" width="8" height="8" fill="#1b3a2d"/>
  <rect x="110" y="110" width="8" height="8" fill="#1b3a2d"/>
  <rect x="140" y="110" width="8" height="8" fill="#1b3a2d"/>
  <rect x="163" y="110" width="8" height="8" fill="#1b3a2d"/>
  <rect x="205" y="110" width="8" height="8" fill="#1b3a2d"/>
  <rect x="235" y="110" width="8" height="8" fill="#1b3a2d"/>
  <rect x="267" y="110" width="8" height="8" fill="#1b3a2d"/>
  <rect x="40" y="125" width="8" height="8" fill="#1b3a2d"/>
  <rect x="70" y="125" width="8" height="8" fill="#1b3a2d"/>
  <rect x="125" y="125" width="8" height="8" fill="#1b3a2d"/>
  <rect x="148" y="125" width="8" height="8" fill="#1b3a2d"/>
  <rect x="220" y="125" width="8" height="8" fill="#1b3a2d"/>
  <rect x="252" y="125" width="8" height="8" fill="#1b3a2d"/>
  <rect x="25" y="140" width="8" height="8" fill="#1b3a2d"/>
  <rect x="55" y="140" width="8" height="8" fill="#1b3a2d"/>
  <rect x="110" y="140" width="8" height="8" fill="#1b3a2d"/>
  <rect x="163" y="140" width="8" height="8" fill="#1b3a2d"/>
  <rect x="205" y="140" width="8" height="8" fill="#1b3a2d"/>
  <rect x="235" y="140" width="8" height="8" fill="#1b3a2d"/>
  <rect x="267" y="140" width="8" height="8" fill="#1b3a2d"/>
  <rect x="40" y="155" width="8" height="8" fill="#1b3a2d"/>
  <rect x="70" y="155" width="8" height="8" fill="#1b3a2d"/>
  <rect x="125" y="155" width="8" height="8" fill="#1b3a2d"/>
  <rect x="148" y="155" width="8" height="8" fill="#1b3a2d"/>
  <rect x="220" y="155" width="8" height="8" fill="#1b3a2d"/>
  <rect x="252" y="155" width="8" height="8" fill="#1b3a2d"/>
  <rect x="25" y="170" width="8" height="8" fill="#1b3a2d"/>
  <rect x="55" y="170" width="8" height="8" fill="#1b3a2d"/>
  <rect x="70" y="170" width="8" height="8" fill="#1b3a2d"/>
  <rect x="110" y="170" width="8" height="8" fill="#1b3a2d"/>
  <rect x="163" y="170" width="8" height="8" fill="#1b3a2d"/>
  <rect x="205" y="170" width="8" height="8" fill="#1b3a2d"/>
  <rect x="235" y="170" width="8" height="8" fill="#1b3a2d"/>
  <rect x="267" y="170" width="8" height="8" fill="#1b3a2d"/>
  <!-- Bottom rows -->
  <rect x="110" y="205" width="8" height="8" fill="#1b3a2d"/>
  <rect x="140" y="205" width="8" height="8" fill="#1b3a2d"/>
  <rect x="163" y="205" width="8" height="8" fill="#1b3a2d"/>
  <rect x="205" y="205" width="8" height="8" fill="#1b3a2d"/>
  <rect x="235" y="205" width="8" height="8" fill="#1b3a2d"/>
  <rect x="267" y="205" width="8" height="8" fill="#1b3a2d"/>
  <rect x="125" y="220" width="8" height="8" fill="#1b3a2d"/>
  <rect x="148" y="220" width="8" height="8" fill="#1b3a2d"/>
  <rect x="220" y="220" width="8" height="8" fill="#1b3a2d"/>
  <rect x="252" y="220" width="8" height="8" fill="#1b3a2d"/>
  <rect x="110" y="235" width="8" height="8" fill="#1b3a2d"/>
  <rect x="163" y="235" width="8" height="8" fill="#1b3a2d"/>
  <rect x="205" y="235" width="8" height="8" fill="#1b3a2d"/>
  <rect x="235" y="235" width="8" height="8" fill="#1b3a2d"/>
  <rect x="267" y="235" width="8" height="8" fill="#1b3a2d"/>
  <rect x="140" y="252" width="8" height="8" fill="#1b3a2d"/>
  <rect x="125" y="267" width="8" height="8" fill="#1b3a2d"/>
  <rect x="163" y="267" width="8" height="8" fill="#1b3a2d"/>
  <rect x="220" y="252" width="8" height="8" fill="#1b3a2d"/>
  <rect x="252" y="267" width="8" height="8" fill="#1b3a2d"/>
  <!-- Center logo area -->
  <rect x="128" y="128" width="44" height="44" rx="4" fill="white" stroke="#e5e7eb" stroke-width="1"/>
  <rect x="133" y="133" width="34" height="34" rx="2" fill="#1b3a2d"/>
  <text x="150" y="153" text-anchor="middle" font-family="Arial" font-size="9" fill="white" font-weight="bold">CG</text>
</svg>
